<?xml version="1.0" encoding="UTF-8" standalone="no"?>
<svg
   version="1.1"
   id="Layer_1"
   x="0px"
   y="0px"
   viewBox="0 0 500 500"
   style="width: 220px;"
   xml:space="preserve"
   data-imageid="data-analysis-45"
   imageName="Data Analysis"
   class="illustrations_image"
   sodipodi:docname="data-analysis-45.svg"
   inkscape:version="1.4 (86a8ad7, 2024-10-11)"
   xmlns:inkscape="http://www.inkscape.org/namespaces/inkscape"
   xmlns:sodipodi="http://sodipodi.sourceforge.net/DTD/sodipodi-0.dtd"
   xmlns="http://www.w3.org/2000/svg"
   xmlns:svg="http://www.w3.org/2000/svg"><defs
   id="defs64" /><sodipodi:namedview
   id="namedview64"
   pagecolor="#ffffff"
   bordercolor="#000000"
   borderopacity="0.25"
   inkscape:showpageshadow="2"
   inkscape:pageopacity="0.0"
   inkscape:pagecheckerboard="0"
   inkscape:deskcolor="#d1d1d1"
   inkscape:zoom="2.2825407"
   inkscape:cx="277.76066"
   inkscape:cy="236.14037"
   inkscape:window-width="1147"
   inkscape:window-height="1032"
   inkscape:window-x="696"
   inkscape:window-y="8"
   inkscape:window-maximized="0"
   inkscape:current-layer="Character_data-analysis-45" />
<style
   type="text/css"
   id="style1">
	.st0_data-analysis-45{fill:#D1D3D4;}
	.st1_data-analysis-45{fill:#FFFFFF;}
	.st2_data-analysis-45{fill:#231F20;}
	.st3_data-analysis-45{fill:#68E1FD;}
</style>
<path
   id="Axis_line_data-analysis-45"
   class="st0_data-analysis-45"
   d="M471.8,388.7H28.2c-0.4,0-0.7-0.3-0.7-0.7l0,0V114.5c0-0.4,0.3-0.7,0.7-0.7&#10;	c0.4,0,0.7,0.3,0.7,0.7c0,0,0,0,0,0v272.8h442.8c0.4,0,0.7,0.3,0.7,0.7S472.1,388.7,471.8,388.7&#10;	C471.8,388.7,471.8,388.7,471.8,388.7L471.8,388.7z" />
<g
   id="Bar_Chart_data-analysis-45">
	<rect
   x="60.6"
   y="358.4"
   class="st1_data-analysis-45"
   width="59.1"
   height="29.6"
   id="rect1" />
	<path
   class="st2_data-analysis-45"
   d="M119.7,388.7H60.6c-0.4,0-0.7-0.3-0.7-0.7l0,0v-29.6c0-0.4,0.3-0.7,0.7-0.7c0,0,0,0,0,0h59.1&#10;		c0.4,0,0.7,0.3,0.7,0.7l0,0V388C120.4,388.4,120.1,388.7,119.7,388.7z M61.3,387.3H119v-28.2H61.3L61.3,387.3z"
   id="path1" />
	<rect
   x="140.6"
   y="312.4"
   class="st1_data-analysis-45"
   width="59.1"
   height="75.6"
   id="rect2" />
	<path
   class="st2_data-analysis-45"
   d="M199.6,388.7h-59.1c-0.4,0-0.7-0.3-0.7-0.7l0,0v-75.6c0-0.4,0.3-0.7,0.7-0.7c0,0,0,0,0,0h59.1&#10;		c0.4,0,0.7,0.3,0.7,0.7l0,0V388C200.3,388.4,200,388.7,199.6,388.7z M141.2,387.3h57.7v-74.2h-57.7V387.3z"
   id="path2" />
	<rect
   x="220.5"
   y="236.8"
   class="st1_data-analysis-45"
   width="59.1"
   height="151.2"
   id="rect3" />
	<path
   class="st2_data-analysis-45"
   d="M279.5,388.7h-59.1c-0.4,0-0.7-0.3-0.7-0.7l0,0V236.8c0-0.4,0.3-0.7,0.7-0.7h59.1c0.4,0,0.7,0.3,0.7,0.7&#10;		c0,0,0,0,0,0V388C280.2,388.4,279.9,388.7,279.5,388.7z M221.2,387.3h57.7V237.5h-57.7V387.3z"
   id="path3" />
	<rect
   x="300.4"
   y="180.7"
   class="st1_data-analysis-45"
   width="59.1"
   height="207.2"
   id="rect4" />
	<path
   class="st2_data-analysis-45"
   d="M359.5,388.7h-59.1c-0.4,0-0.7-0.3-0.7-0.7v0V180.7c0-0.4,0.3-0.7,0.7-0.7l0,0h59.1c0.4,0,0.7,0.3,0.7,0.7&#10;		c0,0,0,0,0,0V388C360.1,388.4,359.8,388.7,359.5,388.7z M301.1,387.3h57.7V181.4h-57.7L301.1,387.3z"
   id="path4" />
	<rect
   x="380.3"
   y="294"
   class="st1_data-analysis-45"
   width="59.1"
   height="94"
   id="rect5" />
	<path
   class="st2_data-analysis-45"
   d="M439.4,388.7h-59.1c-0.4,0-0.7-0.3-0.7-0.7v0v-94c0-0.4,0.3-0.7,0.7-0.7h0h59.1c0.4,0,0.7,0.3,0.7,0.7v0v94&#10;		C440,388.4,439.7,388.7,439.4,388.7z M381,387.3h57.7v-92.6H381V387.3z"
   id="path5" />
</g>
<g
   id="Character_data-analysis-45">
	<path
   class="st1_data-analysis-45"
   d="M249.6,118.3c1.6-1.8,3.4-3.4,5.4-4.7c3.8-2.3,8.6-2.1,12.2,0.5c1-1.1,2.4-1.7,3.9-1.5&#10;		c4.9,0.2,8.5,4.5,10.8,8.5c2.9,5.1,3.8,11.2,6.6,16.3c2.5,4.6,9.4,7.8,13.8,10.1c3.3,1.7,6.7,3.3,9.4,5.7&#10;		c6.1,5.4,8.2,14.6,5.7,22.4s-8.9,13.9-16.5,16.9c-3.2,1.2-6.4,2.1-9.8,2.8c-3.4,0.8-6.8,1.5-10.2,1.3c-2.6-0.2-5.2-1-7.8-1.4&#10;		s-5.1-0.5-7.6-1.2c-6.7-2.1-9.8-7.8-13-13.6c-3.9-7.1-5.3-15.1-7.3-22.8C242.3,146.4,241.5,127.6,249.6,118.3z"
   id="path6" />
	<path
   class="st2_data-analysis-45"
   d="M282.3,197.3c-0.5,0-1,0-1.5,0c-1.6-0.2-3.2-0.4-4.8-0.8c-1-0.2-2-0.4-3-0.6c-0.8-0.1-1.7-0.2-2.5-0.3&#10;		c-1.7-0.1-3.5-0.4-5.2-0.9c-6.8-2.1-10-7.9-13.1-13.5l-0.2-0.4c-3.2-5.8-4.8-12.2-6.3-18.4c-0.4-1.5-0.7-3-1.1-4.5&#10;		c-2.8-10.7-3.9-30.1,4.5-39.8l0,0c1.6-1.9,3.5-3.6,5.6-4.9c3.9-2.3,8.7-2.2,12.5,0.2c1.1-0.9,2.5-1.4,4-1.3&#10;		c4.3,0.2,8.1,3.2,11.3,8.8c1.4,2.7,2.6,5.6,3.5,8.5c0.8,2.7,1.9,5.3,3.1,7.8c2.1,3.9,7.9,6.9,12.1,9.1l1.5,0.8&#10;		c0.5,0.3,1.1,0.6,1.7,0.9c2.8,1.3,5.5,3,7.9,4.9c6.1,5.3,8.5,14.9,5.9,23.1c-2.4,7.6-8.7,14.1-16.9,17.4c-3.2,1.2-6.5,2.1-9.9,2.8&#10;		C288.3,196.8,285.3,197.2,282.3,197.3z M250.1,118.8c-8,9.3-6.9,28.1-4.2,38.6c0.4,1.5,0.8,3,1.1,4.5c1.5,6.1,3,12.5,6.1,18.1&#10;		l0.2,0.4c3.1,5.6,6,10.9,12.3,12.8c1.6,0.4,3.2,0.7,4.9,0.9c0.9,0.1,1.7,0.2,2.6,0.3c1,0.2,2,0.4,3.1,0.6c1.5,0.4,3.1,0.6,4.6,0.8&#10;		c3.4,0.3,6.8-0.5,10-1.2c3.3-0.7,6.5-1.6,9.7-2.7c7.8-3.1,13.8-9.3,16.1-16.5c2.5-7.8,0.2-16.7-5.5-21.7c-2.3-1.9-4.9-3.5-7.6-4.8&#10;		c-0.6-0.3-1.1-0.6-1.7-0.9l-1.5-0.8c-4.6-2.4-10.3-5.4-12.6-9.6c-1.3-2.6-2.4-5.3-3.2-8.1c-0.8-2.8-2-5.6-3.3-8.2&#10;		c-3-5.2-6.4-8-10.2-8.1c-1.2-0.1-2.5,0.3-3.3,1.3c-0.2,0.3-0.7,0.4-1,0.1c0,0,0,0,0,0c-3.4-2.4-7.9-2.6-11.4-0.5&#10;		C253.3,115.5,251.5,117,250.1,118.8L250.1,118.8z"
   id="path7" />
	<path
   class="st1_data-analysis-45"
   d="M216.3,171.4c0,0-4-14.6-5.1-15.2s-1.2,3.6-1.2,3.6s-4.3-3.8-9-4.7s-5.8,0.4-5.1,1.1s6.8,1.9,6.8,1.9&#10;		s-8.1-0.2-7.8,1.4s7.3,1,7.3,1s-7.6,1-6.5,2.6s7,0,7,0s-8.4,1.9-6,3.2s7.9-1.1,8.9,0.4s2.5,8.5,2.5,8.5L216.3,171.4z"
   id="path8" />
	<path
   class="st2_data-analysis-45"
   d="M208.1,175.8c-0.1,0-0.2,0-0.3-0.1c-0.2-0.1-0.3-0.3-0.3-0.4c-0.4-1.9-1.6-7.1-2.4-8.3c-0.3-0.4-2.1-0.2-3.4,0&#10;		c-1.9,0.3-4,0.6-5.3-0.2c-0.5-0.2-0.8-0.7-0.8-1.2c0.1-0.5,0.5-0.9,1.3-1.3c-0.7-0.1-1.3-0.4-1.7-0.9c-0.3-0.3-0.3-0.8-0.1-1.1&#10;		c0.4-0.6,1-1,1.7-1.2c-1.3-0.2-2.3-0.7-2.4-1.5c-0.1-0.3,0.1-0.7,0.3-0.9c0.5-0.6,1.8-0.9,3.3-1.1c-0.8-0.2-1.6-0.5-2.3-0.9&#10;		c-0.4-0.4-0.5-1-0.3-1.5c0.6-1.1,2.8-1.4,5.9-0.8c3,0.7,5.8,2.1,8.3,4c0.1-1.2,0.4-2.4,1-2.8c0.3-0.2,0.7-0.2,1,0&#10;		c1.1,0.6,3.6,8.8,5.4,15.6c0.1,0.3-0.1,0.6-0.4,0.8l-8.2,3.8C208.3,175.8,208.2,175.8,208.1,175.8z M204.1,165.5&#10;		c0.8-0.1,1.6,0.2,2.1,0.8c0.8,1.3,2,6,2.4,8l7-3.2c-1.7-6.1-3.7-12.5-4.5-14c-0.2,0.9-0.3,1.8-0.3,2.8c0,0.3-0.2,0.5-0.4,0.6&#10;		c-0.2,0.1-0.5,0.1-0.7-0.1c0,0-4.2-3.7-8.7-4.6c-3.3-0.7-4.4-0.1-4.5,0.1c2.1,0.7,4.3,1.3,6.5,1.6c0.3,0.1,0.6,0.4,0.5,0.7&#10;		c0,0.3-0.3,0.6-0.6,0.6c-3.4-0.1-6.8,0.3-7.2,0.8c0.3,0.4,3.5,0.6,6.6,0.3c0.3,0,0.7,0.2,0.7,0.6c0,0.3-0.2,0.7-0.6,0.7&#10;		c-3,0.4-5.8,1.2-6.1,1.7c0.5,0.5,3,0.4,5.4-0.1l1-0.2c0.3-0.1,0.7,0.2,0.8,0.5c0.1,0.3-0.1,0.6-0.4,0.7l-1,0.2&#10;		c-1.7,0.4-3.3,1-4.9,1.8c1,0.5,2.9,0.2,4.5,0C202.4,165.7,203.3,165.6,204.1,165.5L204.1,165.5z"
   id="path9" />
	<path
   class="st3_data-analysis-45 targetColor"
   d="M226,190l-9.1-21.7c0,0-12.3,3.4-12,4.2s5.8,24.6,6.8,24.6S226,190,226,190z"
   style="fill:#fdc020;fill-opacity:1"
   id="path10" />
	<path
   class="st1_data-analysis-45"
   d="M184.1,278.4c-1,1-2.3,1.6-3.6,1.8c-1.6,0-19.1-3.2-19.8-0.8s0.7,3.6,4.9,5.5c5.6,2.6,24.3,8.8,24.3,8.8&#10;		l4.1-9.6L184.1,278.4z"
   id="path11" />
	<path
   class="st2_data-analysis-45"
   d="M189.9,294.4c-0.1,0-0.1,0-0.2,0c-0.8-0.2-18.9-6.2-24.4-8.8c-3.7-1.7-6.2-3.2-5.2-6.3c0.6-2,6.1-1.6,16.9,0&#10;		c1.7,0.2,3.1,0.5,3.5,0.4c1.2-0.2,2.3-0.7,3.2-1.5c0.2-0.2,0.5-0.3,0.8-0.1l9.9,5.7c0.3,0.2,0.4,0.5,0.3,0.8l-4.1,9.6&#10;		C190.4,294.2,190.1,294.4,189.9,294.4z M163.9,279.1c-1.4,0-2.4,0.1-2.6,0.5c-0.5,1.7,0.1,2.7,4.5,4.8c4.9,2.3,20.6,7.5,23.7,8.6&#10;		l3.6-8.6l-9-5.1c-1,0.9-2.3,1.5-3.7,1.6c-0.4,0-1.6-0.1-3.7-0.4C172.5,279.7,168.2,279.3,163.9,279.1L163.9,279.1z"
   id="path12" />
	<path
   class="st1_data-analysis-45"
   d="M224.4,287.5c0,0-19.4,3.8-20.4,4.9s0.2,2.7,5.1,3.8s26.1,2.9,26.1,2.9s1-5.7,0.1-8.8S224.4,287.5,224.4,287.5&#10;		z"
   id="path13" />
	<path
   class="st2_data-analysis-45"
   d="M235.3,299.8L235.3,299.8c-0.9-0.1-21.4-1.8-26.3-2.9c-3.4-0.8-5.4-1.9-5.8-3.2c-0.2-0.6,0-1.2,0.4-1.7&#10;		c1-1.1,14.8-4,20.7-5.1h0.1c1.8,0,10.6,0,11.6,3.3c0.9,3.2-0.1,8.8-0.1,9.1C235.9,299.6,235.6,299.8,235.3,299.8z M224.5,288.2&#10;		c-9,1.8-19.1,4-20,4.7c-0.1,0.1-0.1,0.3-0.1,0.4c0.1,0.2,0.6,1.4,4.9,2.3s22,2.5,25.4,2.8c0.2-1.5,0.8-5.5,0.1-7.9&#10;		C234.3,288.8,228.5,288.1,224.5,288.2L224.5,288.2z"
   id="path14" />
	<path
   class="st3_data-analysis-45 targetColor"
   d="M288.9,218.4c0,0,13.1-28.7,11.5-47.5s-13.9-19.9-18.2-20.2s-26.9-3.3-35.2,6.8s-6.1,58.9-6.1,58.9&#10;		L288.9,218.4z"
   style="fill:#fdc020;fill-opacity:1"
   id="path15" />
	<polygon
   class="st2_data-analysis-45"
   points="259.9,159.4 261.8,190.6 276.4,156.8 	"
   id="polygon15" />
	<path
   class="st2_data-analysis-45"
   d="M261.8,191.3h-0.1c-0.3-0.1-0.6-0.3-0.6-0.6l-2-31.2c0-0.4,0.2-0.7,0.6-0.7l16.5-2.6c0.3,0,0.5,0.1,0.7,0.3&#10;		c0.2,0.2,0.2,0.5,0.1,0.7l-14.5,33.8C262.3,191.1,262.1,191.3,261.8,191.3z M260.6,160l1.7,27.6l12.9-29.9L260.6,160z"
   id="path16" />
	<path
   class="st2_data-analysis-45"
   d="M240,206.8c0,0-18.6,5-35.3,16.3c-7.6,5.2-21.9,56.1-21.9,56.1s1.6,8.8,11.8,7.4l44.5-57.7&#10;		C239.1,228.9,248.7,206.5,240,206.8z"
   id="path17" />
	<path
   class="st2_data-analysis-45"
   d="M192.5,287.5c-5,0.1-9.3-3.3-10.4-8.2c0-0.1,0-0.2,0-0.3c0.6-2.1,14.4-51.2,22.2-56.5&#10;		c16.6-11.2,35.3-16.4,35.5-16.4c0.1,0,0.2,0,0.3,0c1.3-0.1,2.5,0.5,3.2,1.6c3.3,4.9-2.9,19.9-3.6,21.6c0,0.1-0.1,0.1-0.1,0.2&#10;		l-44.5,57.7c-0.1,0.1-0.3,0.2-0.5,0.3C193.9,287.4,193.2,287.5,192.5,287.5z M183.5,279.2c0.3,1.1,2.2,7.8,10.7,6.8l44.3-57.4&#10;		c1.9-4.5,6.2-16.5,3.7-20.1c-0.5-0.7-1.3-1-2.1-1c-1.4,0.4-19.2,5.4-35,16.2C199.3,227.6,188.5,261.6,183.5,279.2L183.5,279.2z"
   id="path18" />
	<path
   class="st2_data-analysis-45"
   d="M288.9,218.4c0,0-37.5-4.9-46.5-6.3c0,0-12.9,4.8-19.6,17.1s-2.3,60.1-2.3,60.1s9.3,3.2,16.2,1.9l13.9-52.9&#10;		C250.6,238.3,286.6,242,288.9,218.4z"
   id="path19" />
	<path
   class="st2_data-analysis-45"
   d="M233,292.3c-4.3-0.1-8.6-0.9-12.8-2.3c-0.3-0.1-0.4-0.3-0.5-0.6c-0.2-2-4.3-48.2,2.4-60.5s19.4-17.2,20-17.4&#10;		c0.1,0,0.2,0,0.3,0c8.9,1.3,46.1,6.2,46.5,6.3c0.4,0.1,0.6,0.4,0.6,0.8c-1,10-8.1,16.7-20.6,19.4c-5.9,1.2-11.9,1.6-17.9,1.2&#10;		l-13.8,52.4c-0.1,0.3-0.3,0.5-0.6,0.5C235.6,292.2,234.3,292.3,233,292.3z M221.2,288.8c1.8,0.6,9.2,2.7,15,1.8l13.8-52.5&#10;		c0.1-0.3,0.4-0.5,0.8-0.5c6,0.5,12.1,0.1,18.1-1.1c11.7-2.6,18.2-8.4,19.4-17.5c-5.1-0.7-37.1-4.9-45.7-6.1&#10;		c-1.5,0.6-13,5.6-19.1,16.7C217.3,240.9,220.7,283.9,221.2,288.8L221.2,288.8z"
   id="path20" />
	<path
   class="st3_data-analysis-45 targetColor"
   d="M247.1,157.5c0,0-6.1,11.8-9.7,17.8S226,190,226,190s-27.7,9.9-27.9,10.4s2.6,9.9,2.6,9.9s29.1-2.1,33.9-4.4&#10;		s14.6-13.5,14.6-13.5L247.1,157.5z"
   style="fill:#fdc020;fill-opacity:1"
   id="path21" />
	<path
   class="st1_data-analysis-45"
   d="M259.9,149.2v10.2c1.6,3.4,5.4,5,9,3.9c6.7-1.7,7.5-6.5,7.5-6.5L276,138c0,0-5.4-3.2-6.5-15&#10;		c0,0-4.5,5.4-14.4,4.2c0,0-1.8,10.1-1.1,15.2C254.7,147.5,259.8,149.1,259.9,149.2z"
   id="path22" />
	<path
   class="st2_data-analysis-45"
   d="M266.5,164.3c-3.1,0-5.9-1.8-7.3-4.6c0-0.1,0-0.2,0-0.3v-9.7c-3.4-1.5-5.5-4-5.9-7.1&#10;		c-0.7-5.2,1.1-15.1,1.1-15.5c0.1-0.4,0.4-0.6,0.8-0.6c9.4,1.1,13.8-3.9,13.8-4c0.2-0.2,0.5-0.3,0.7-0.2c0.3,0.1,0.5,0.3,0.5,0.6&#10;		c1.1,11.2,6.1,14.4,6.2,14.4c0.2,0.1,0.3,0.3,0.3,0.6l0.3,18.8c0,0.3-1,5.4-8,7.2C268.2,164.2,267.4,164.3,266.5,164.3z&#10;		 M260.6,159.2c0.4,0.8,2.6,4.8,8.2,3.4c6.1-1.6,6.9-5.7,7-5.9l-0.3-18.3c-1.2-0.9-5.1-4.5-6.4-13.8c-1.9,1.5-6.2,4.2-13.3,3.5&#10;		c-0.4,2.3-1.6,10.1-1,14.4c0.5,3.7,3.6,5.4,5.3,6.1c0.1,0,0.2,0.1,0.3,0.1c0.2,0.1,0.3,0.3,0.3,0.6L260.6,159.2z"
   id="path23" />
	<path
   class="st1_data-analysis-45"
   d="M272.2,137.7c0.2-0.9,0.7-1.7,1.5-2.3c0.7-0.5,1.5-0.9,2.3-1.2c0.4-0.2,0.9-0.3,1.4-0.3c0.4,0,0.7,0.2,1,0.3&#10;		c0.7,0.3,1.3,0.9,1.6,1.7c0.2,0.6,0.2,1.3,0.1,1.9c-0.1,0.7-0.2,1.4-0.5,2c-1.1,2.7-4.2,4-6.9,2.9c0,0-0.1,0-0.1,0"
   id="path24" />
	<path
   class="st2_data-analysis-45"
   d="M274.6,143.8c-0.8,0-1.6-0.2-2.4-0.5c-0.4-0.2-0.5-0.6-0.4-0.9c0.2-0.4,0.6-0.5,0.9-0.4c2.3,1,5-0.1,6-2.5&#10;		c0.2-0.6,0.4-1.2,0.4-1.9c0.1-0.5,0.1-1.1-0.1-1.6c-0.3-0.6-0.7-1-1.3-1.3c-0.2-0.1-0.5-0.2-0.7-0.2c-0.4,0-0.7,0.1-1.1,0.2&#10;		c-0.8,0.2-1.5,0.6-2.1,1.1c-0.6,0.5-1,1.2-1.2,2c-0.1,0.4-0.5,0.6-0.8,0.5s-0.6-0.5-0.5-0.8c0.2-1.1,0.8-2,1.7-2.7&#10;		c0.8-0.6,1.6-1,2.5-1.3c0.5-0.2,1.1-0.3,1.7-0.3c0.4,0.1,0.8,0.2,1.2,0.4c0.9,0.4,1.6,1.1,2,2c0.2,0.7,0.3,1.5,0.1,2.2&#10;		c-0.1,0.8-0.3,1.5-0.5,2.2C279.2,142.3,277,143.8,274.6,143.8L274.6,143.8z"
   id="path25" />
	<path
   class="st1_data-analysis-45"
   d="M263.6,133.6c0,0-3.6,5.1-2.8,6.1s3.1,0.4,3.1,0.4"
   id="path26" />
	<path
   class="st2_data-analysis-45"
   d="M262.5,140.9c-0.8,0.1-1.6-0.2-2.2-0.8c-0.8-0.9,0.1-3.2,2.8-6.9c0.2-0.3,0.6-0.4,1-0.2s0.4,0.6,0.2,1&#10;		c0,0,0,0,0,0.1c-1.6,2.3-2.9,4.7-2.8,5.3c0.3,0.3,1.6,0.2,2.4,0.1c0.4-0.1,0.7,0.2,0.8,0.6c0.1,0.3-0.1,0.7-0.5,0.8&#10;		C263.6,140.8,263,140.9,262.5,140.9z"
   id="path27" />
	
		<ellipse
   transform="matrix(5.989229e-02 -0.9982 0.9982 5.989229e-02 119.8184 391.0686)"
   class="st2_data-analysis-45"
   cx="267.5"
   cy="131.9"
   rx="1.2"
   ry="0.9"
   id="ellipse27" />
	
		<ellipse
   transform="matrix(7.010463e-02 -0.9975 0.9975 7.010463e-02 109.7593 383.6256)"
   class="st2_data-analysis-45"
   cx="260.6"
   cy="132.9"
   rx="1.2"
   ry="0.9"
   id="ellipse28" />
	<path
   class="st2_data-analysis-45"
   d="M263.8,145.6c-2.1-0.1-4.2-0.7-6-1.9c-0.3-0.2-0.4-0.6-0.2-1s0.6-0.4,1-0.2c0,0,3.9,2.4,6.9,1.4&#10;		c1.5-0.5,2.6-1.9,3.3-3.9c0.1-0.4,0.5-0.6,0.9-0.4c0.4,0.1,0.6,0.5,0.4,0.9c0,0,0,0,0,0c-0.8,2.5-2.2,4.1-4.2,4.8&#10;		C265.3,145.4,264.6,145.6,263.8,145.6z"
   id="path28" />
	<path
   class="st2_data-analysis-45"
   d="M259.9,149.2c0,0,6.3,1.5,10-0.7c0,0-4.1,8.5-10,7.6V149.2z"
   id="path29" />
	<path
   class="st2_data-analysis-45"
   d="M260.8,157c-0.3,0-0.7,0-1-0.1c-0.3-0.1-0.6-0.3-0.6-0.7v-7c0-0.4,0.3-0.7,0.7-0.7c0.1,0,0.1,0,0.2,0&#10;		c0.1,0,6.1,1.4,9.5-0.6c0.3-0.2,0.8-0.1,1,0.2c0.1,0.2,0.1,0.5,0,0.7C270.4,149.2,266.6,157,260.8,157z M260.6,155.6&#10;		c3.5,0.1,6.3-3.4,7.7-5.6c-2.5,0.6-5.2,0.6-7.7,0.1V155.6z"
   id="path30" />
	<path
   class="st3_data-analysis-45 targetColor"
   d="M294.3,155.3c5.2,0.9,26.1,49.3,19,54.9c-11.2,8.6-50.1-0.1-50.1-0.1l3.2-15c0,0,25,0.7,25.4-4.4&#10;		s-14.6-28.9-12.6-32.5S294.3,155.3,294.3,155.3z"
   style="fill:#fdc020;fill-opacity:1"
   id="path31" />
	<path
   class="st1_data-analysis-45"
   d="M269,200.1c-4.2,0.2-8.3,0-12.5-0.6c-3-0.7-6.2-1.1-9.3-1.1c-4.1,0.2-8.2,1.1-12,2.7c-0.2,0.1-0.3,0.1-0.4,0.3&#10;		c-0.4,0.5,0.5,1,1.1,1c1.7,0,3.3-0.2,4.9-0.6c-3.9,1.5-7.7,3.4-11.1,5.9c-0.4,0.3-0.8,0.7-0.6,1.2s1,0.4,1.5,0.1l9-4.1&#10;		c-2.3,0.9-4.5,2.2-6.4,3.9c-0.3,0.2-0.6,0.5-0.5,0.9c0.1,0.6,1,0.5,1.6,0.2c2.7-1.4,5.3-2.9,7.8-4.8l-5.5,4.2&#10;		c-0.1,0.4,0.4,0.8,0.9,0.9c0.5,0,0.9-0.2,1.3-0.4l6.2-3.6l-3.9,2.7c-0.6,0.4-1.3,1.1-1,1.8s1.5,0.6,2.3,0.2c3.2-1.4,6.5-2.4,9.9-3&#10;		c1.2-0.4,2.4-0.6,3.7-0.7c1.9,0.2,3.8,0.6,5.6,1.2c2.8,0.6,5.6,1.3,8.4,1.9"
   id="path32" />
	<path
   class="st2_data-analysis-45"
   d="M241,211.9c-0.2,0-0.5,0-0.7-0.1c-0.4-0.1-0.7-0.4-0.8-0.8c-0.1-0.3-0.1-0.5-0.1-0.8l-0.3,0.2&#10;		c-0.5,0.3-1,0.5-1.6,0.5c-0.5,0-0.9-0.2-1.2-0.6c-0.1-0.2-0.2-0.3-0.3-0.5l-1.4,0.7c-0.6,0.3-1.2,0.4-1.9,0.1&#10;		c-0.3-0.2-0.6-0.5-0.6-0.8c-0.1-0.3,0-0.6,0.1-0.8l-1.3,0.6c-0.5,0.3-1.1,0.3-1.7,0.2c-0.3-0.1-0.5-0.3-0.7-0.6&#10;		c-0.1-0.3-0.3-1.1,0.8-1.9c2.2-1.6,4.5-2.9,6.9-4.1H236c-0.7,0-1.4-0.4-1.7-0.9c-0.2-0.4-0.1-0.8,0.1-1.1c0.2-0.2,0.4-0.4,0.7-0.5&#10;		c3.9-1.6,8-2.6,12.2-2.8c2.8-0.1,5.6,0.2,8.3,0.9l1.1,0.2c4.1,0.6,8.2,0.8,12.3,0.6c0.3,0,0.6,0.2,0.7,0.6c0,0,0,0,0,0.1&#10;		c0,0.3-0.3,0.6-0.6,0.7c0,0,0,0,0,0c-4.2,0.3-8.4,0.1-12.6-0.6l-1.1-0.2c-2.6-0.6-5.3-0.9-8-0.8c-4,0.2-8,1.1-11.7,2.6&#10;		c0.1,0.1,0.3,0.1,0.4,0.1c1.6,0,3.2-0.2,4.7-0.6c0.3-0.1,0.7,0.2,0.8,0.5c0.1,0.3-0.1,0.6-0.4,0.7c-3.9,1.4-7.6,3.4-10.9,5.8&#10;		c-0.2,0.1-0.3,0.2-0.4,0.4c0-0.1,0.3-0.1,0.6-0.2l6.9-3.2c0.7-0.4,1.4-0.7,2.1-1c0.3-0.1,0.7,0,0.8,0.3s0,0.7-0.3,0.8l-2,0.9&#10;		c-1.5,0.8-2.9,1.7-4.2,2.9c-0.1,0.1-0.2,0.2-0.3,0.3c0.1-0.1,0.4-0.1,0.7-0.2c2.7-1.3,5.3-2.9,7.7-4.7c0.3-0.2,0.7,0,0.9,0.3&#10;		c0.1,0.2,0.1,0.5-0.1,0.7l-5.1,3.9h0.1c0.3,0,0.6-0.2,0.9-0.4l6.2-3.6c0.3-0.2,0.7,0,0.9,0.3c0.1,0.3,0.1,0.6-0.2,0.8l-3.8,2.7&#10;		c-0.6,0.4-0.9,0.8-0.8,1c0,0.1,0.1,0.1,0.1,0.1c0.5,0.1,0.9,0,1.4-0.2c3.2-1.4,6.6-2.4,10-3.1c0.4-0.1,0.8-0.2,1.2-0.3&#10;		c0.9-0.3,1.7-0.4,2.6-0.4c1.4,0.1,2.7,0.4,4,0.8c0.6,0.2,1.1,0.3,1.7,0.4c2.8,0.6,5.6,1.3,8.4,1.9c0.3,0.1,0.5,0.4,0.5,0.7&#10;		c0,0,0,0,0,0c-0.1,0.3-0.4,0.6-0.7,0.5c0,0,0,0,0,0c-2.8-0.7-5.6-1.3-8.4-1.9c-0.6-0.1-1.1-0.3-1.8-0.4c-1.2-0.4-2.5-0.6-3.7-0.8&#10;		c-0.8,0-1.5,0.1-2.3,0.4c-0.4,0.1-0.8,0.2-1.3,0.3c-3.4,0.6-6.6,1.6-9.8,3C242.1,211.7,241.6,211.8,241,211.9z"
   id="path33" />
	<path
   class="st1_data-analysis-45"
   d="M249.8,161.8c-1.4,1.4-4.9,23.4-6.1,33.8"
   id="path34" />
	<path
   class="st2_data-analysis-45"
   d="M243.7,196.2L243.7,196.2c-0.4,0-0.7-0.3-0.6-0.7c0,0,0,0,0,0c0.8-6.5,4.5-32.4,6.3-34.2&#10;		c0.2-0.3,0.7-0.3,0.9,0s0.3,0.7,0,0.9l0,0c-1.2,1.4-4.6,21.9-6,33.4C244.2,196,244,196.2,243.7,196.2z"
   id="path35" />
	<polygon
   class="st1_data-analysis-45"
   points="197.5,216.3 197.8,218.9 254.8,227.2 254.2,224.5 	"
   id="polygon35" />
	<path
   class="st2_data-analysis-45"
   d="M254.8,227.9h-0.1l-57-8.3c-0.3,0-0.6-0.3-0.6-0.6l-0.2-2.5c0-0.4,0.2-0.7,0.6-0.8c0.1,0,0.1,0,0.2,0l56.7,8.2&#10;		c0.3,0,0.5,0.3,0.6,0.5l0.6,2.7c0.1,0.4-0.1,0.7-0.5,0.8C254.9,227.9,254.9,227.9,254.8,227.9L254.8,227.9z M198.4,218.2l55.5,8.1&#10;		l-0.3-1.2l-55.3-8L198.4,218.2z"
   id="path36" />
	<path
   class="st1_data-analysis-45"
   d="M197.5,216.3c0,0,13-11.1,13.4-11s58.7,7.1,58.7,7.1l-15.5,12.1L197.5,216.3z"
   id="path37" />
	<path
   class="st2_data-analysis-45"
   d="M254.2,225.2h-0.1l-56.7-8.2c-0.4-0.1-0.6-0.4-0.6-0.8c0-0.2,0.1-0.3,0.2-0.4c13.3-11.4,13.6-11.3,14-11.2&#10;		c0.8,0.1,38.7,4.7,58.7,7.1c0.4,0,0.7,0.4,0.6,0.8c0,0.2-0.1,0.4-0.3,0.5l-15.5,12.1C254.5,225.2,254.4,225.2,254.2,225.2z&#10;		 M199.2,215.8l54.8,7.9l13.9-10.9c-14.7-1.8-53.2-6.4-56.9-6.9C209.9,206.8,203.7,212,199.2,215.8L199.2,215.8z"
   id="path38" />
	<polygon
   class="st1_data-analysis-45"
   points="254.8,227.2 269.9,214.9 269.7,212.4 254.2,224.5 	"
   id="polygon38" />
	<path
   class="st2_data-analysis-45"
   d="M254.8,227.9c-0.1,0-0.2,0-0.2,0c-0.2-0.1-0.4-0.3-0.4-0.5l-0.6-2.6c-0.1-0.3,0-0.5,0.2-0.7l15.5-12.1&#10;		c0.2-0.2,0.5-0.2,0.7-0.1c0.2,0.1,0.4,0.3,0.4,0.6l0.2,2.5c0,0.2-0.1,0.5-0.3,0.6l-15.1,12.3C255.1,227.9,254.9,227.9,254.8,227.9z&#10;		 M255,224.8l0.2,1.1l14-11.3l-0.1-0.9L255,224.8z"
   id="path39" />
	<polygon
   class="st1_data-analysis-45"
   points="197.5,216.3 186.6,179.6 246.7,189.9 254.2,224.5 	"
   id="polygon39" />
	<path
   class="st2_data-analysis-45"
   d="M254.2,225.2h-0.1l-56.7-8.2c-0.3,0-0.5-0.2-0.6-0.5l-11-36.7c-0.1-0.2,0-0.5,0.1-0.7c0.2-0.2,0.4-0.3,0.6-0.2&#10;		l60.1,10.2c0.3,0,0.5,0.3,0.6,0.5l7.5,34.7c0.1,0.4-0.1,0.7-0.5,0.8C254.3,225.2,254.2,225.2,254.2,225.2L254.2,225.2z&#10;		 M198.1,215.7l55.2,8l-7.2-33.2l-58.5-10L198.1,215.7z"
   id="path40" />
	<path
   class="st1_data-analysis-45"
   d="M219.2,252.6c-0.4,0-0.7-0.3-0.7-0.6c0-0.7-1.1-16.2,3.8-23.1c0.2-0.3,0.7-0.4,1-0.1c0.3,0.2,0.4,0.6,0.2,0.9&#10;		c-4.6,6.4-3.5,22-3.5,22.2C219.9,252.2,219.6,252.5,219.2,252.6L219.2,252.6z"
   id="path41" />
	<path
   class="st2_data-analysis-45"
   d="M269.9,187.6c-0.2,0-0.4-0.1-0.5-0.2c-0.3-0.3-0.3-0.7,0-1c3.5-3.2,9.1-8.9,9.4-10.4s-2.2-3.2-3.1-3.8&#10;		c-0.2-0.1-0.3-0.3-0.4-0.6c0-0.2,0.1-0.4,0.3-0.6c1.6-1.3,3.1-2.7,4.6-4.1c0.2-0.7-0.8-5-1.8-8.6c-0.1-0.4,0.1-0.8,0.4-0.9&#10;		c0,0,0,0,0,0c0.4-0.1,0.8,0.1,0.9,0.5c0,0,0,0,0,0c1.2,3.9,2.4,8.8,1.6,9.8c-1.3,1.3-2.6,2.6-4.1,3.8c1.2,0.9,3.4,2.7,2.9,4.7&#10;		c-0.5,2.3-8.3,9.7-9.8,11.1C270.3,187.5,270.1,187.5,269.9,187.6z"
   id="path42" />
	<path
   class="st2_data-analysis-45"
   d="M282.1,215.3L282.1,215.3l-12.2-2.1c-0.3-0.1-0.6-0.3-0.6-0.7l-0.4-14.5c0-0.4,0.3-0.7,0.6-0.7l21.7-2.3&#10;		l-9.6-33c-0.1-0.4,0.1-0.8,0.5-0.9c0.4-0.1,0.8,0.1,0.9,0.5l9.8,33.8c0.1,0.2,0,0.4-0.1,0.6c-0.1,0.2-0.3,0.3-0.5,0.3l-21.9,2.3&#10;		l0.4,13.3l11.6,2c0.4,0.1,0.6,0.5,0.5,0.9C282.7,215.1,282.4,215.3,282.1,215.3L282.1,215.3z"
   id="path43" />
	<path
   class="st2_data-analysis-45"
   d="M258.5,187.6c-0.3,0-0.5-0.1-0.6-0.4c-0.2-0.4-5.1-9.3-5.8-12.6c-0.6-2.7,2-4.6,3.6-5.5&#10;		c-1.2-0.7-2.3-1.5-3.3-2.4c-0.4-0.4-1.5-1.5,4.9-8.1c0.3-0.3,0.7-0.3,1,0c0,0,0,0,0,0c0.3,0.3,0.3,0.7,0,1&#10;		c-2.6,2.6-4.7,5.4-4.8,6.3c1.3,1,2.6,2,4,2.8c0.3,0.2,0.4,0.6,0.2,1c-0.1,0.1-0.2,0.2-0.3,0.3c0,0-4.6,1.8-4,4.4&#10;		c0.7,3.1,5.6,12.1,5.7,12.2c0.2,0.3,0.1,0.8-0.3,0.9c0,0,0,0,0,0C258.6,187.5,258.6,187.5,258.5,187.6z M253.5,165.9L253.5,165.9z"
   id="path44" />
	<path
   class="st2_data-analysis-45"
   d="M209,163.6c-0.3,0-0.6-0.2-0.6-0.6c-0.2-1.4,0.3-2.7,1.3-3.7c0.3-0.2,0.7-0.2,0.9,0s0.2,0.7,0,0.9&#10;		c-0.7,0.7-1,1.6-0.9,2.6C209.7,163.2,209.4,163.5,209,163.6C209.1,163.5,209.1,163.5,209,163.6L209,163.6z"
   id="path45" />
</g>
<g
   id="Pie_Chart_data-analysis-45">
	<path
   class="st1_data-analysis-45"
   d="M74.3,137.3c-1.9,1.6-3.7,3.4-5.3,5.3c-8.4,9.5-13.4,21.6-14.2,34.3H80c0.7-6,3.1-11.7,6.9-16.5&#10;		c1.6-2,3.3-3.8,5.3-5.3c4.7-3.8,10.5-6.2,16.5-6.9v-25.2C96,123.9,83.9,128.9,74.3,137.3z"
   id="path46" />
	<path
   class="st0_data-analysis-45"
   d="M80,177.6H54.8c-0.2,0-0.4-0.1-0.5-0.2c-0.1-0.1-0.2-0.3-0.2-0.5c0.8-12.8,5.9-25.1,14.4-34.7&#10;		c1.7-1.9,3.5-3.7,5.4-5.4c9.6-8.5,21.9-13.6,34.7-14.4c0.2,0,0.4,0.1,0.5,0.2c0.1,0.1,0.2,0.3,0.2,0.5v25.2c0,0.4-0.3,0.7-0.6,0.7&#10;		c-14.7,1.8-26.2,13.3-28,28C80.7,177.3,80.4,177.6,80,177.6z M55.6,176.2h23.7c0.8-5.9,3.2-11.5,6.9-16.2&#10;		c5.4-6.8,13.1-11.2,21.7-12.4v-23.8c-12.3,0.9-23.9,5.8-33.1,14l0,0c-1.9,1.6-3.6,3.4-5.2,5.2C61.4,152.3,56.5,163.9,55.6,176.2&#10;		L55.6,176.2z M74.4,137.3L74.4,137.3z"
   id="path47" />
	<path
   class="st1_data-analysis-45"
   d="M170,176.9c-0.8-12.7-5.8-24.7-14.2-34.3L138,160.4c3.8,4.7,6.2,10.4,6.9,16.5c0.3,2.5,0.3,5,0,7.5&#10;		c-0.7,6-3.1,11.7-6.9,16.5c-1.6,2-3.3,3.8-5.3,5.3c-4.7,3.8-10.5,6.2-16.5,6.9c-2.5,0.3-5,0.3-7.5,0c-15-1.8-26.9-13.6-28.7-28.7&#10;		H54.8c0.8,12.7,5.8,24.7,14.2,34.3c1.7,1.9,3.4,3.7,5.3,5.3c9.5,8.4,21.6,13.4,34.3,14.2c1.2,0.1,2.5,0.1,3.8,0.1s2.5,0,3.8-0.1&#10;		c12.7-0.8,24.7-5.8,34.3-14.2c1.9-1.6,3.7-3.4,5.3-5.3c8.4-9.5,13.4-21.6,14.3-34.3c0.1-1.2,0.1-2.5,0.1-3.8S170.1,178.1,170,176.9&#10;		z"
   id="path48" />
	<path
   class="st0_data-analysis-45"
   d="M112.4,239.1c-1.4,0-2.6,0-3.8-0.1c-12.8-0.8-25.1-5.9-34.7-14.4c-1.9-1.7-3.7-3.5-5.4-5.4&#10;		c-8.5-9.6-13.6-21.8-14.4-34.7c0-0.2,0.1-0.4,0.2-0.5c0.1-0.1,0.3-0.2,0.5-0.2H80c0.4,0,0.7,0.3,0.7,0.6c1.7,14.7,13.3,26.3,28,28&#10;		c2.4,0.3,4.9,0.3,7.4,0c5.9-0.7,11.5-3,16.1-6.7c1.9-1.5,3.7-3.3,5.2-5.2c3.7-4.6,6-10.2,6.7-16.1c0.3-2.4,0.3-4.9,0-7.4&#10;		c-0.7-5.9-3-11.5-6.7-16.1c-0.2-0.3-0.2-0.7,0.1-0.9l17.8-17.8c0.1-0.1,0.3-0.2,0.5-0.2c0.2,0,0.4,0.1,0.5,0.2&#10;		c8.5,9.6,13.6,21.8,14.4,34.7c0.1,1.2,0.1,2.4,0.1,3.8s0,2.6-0.1,3.8c-0.8,12.8-5.9,25.1-14.4,34.7c-1.7,1.9-3.5,3.7-5.4,5.4&#10;		c-9.6,8.5-21.8,13.6-34.7,14.4C115,239,113.7,239.1,112.4,239.1z M55.5,185.1c0.9,12.3,5.8,23.9,14,33.1c1.6,1.9,3.4,3.6,5.2,5.2&#10;		c9.4,8.3,21.3,13.3,33.8,14.1c2.5,0.2,5,0.2,7.4,0c12.6-0.8,24.5-5.7,33.9-14.1c1.9-1.6,3.6-3.4,5.2-5.2&#10;		c8.3-9.4,13.3-21.3,14.1-33.9c0.1-1.2,0.1-2.4,0.1-3.7s0-2.5-0.1-3.7l0,0c-0.8-12.3-5.5-24-13.6-33.3l-16.8,16.8&#10;		c3.6,4.8,5.9,10.4,6.6,16.3c0.1,1.3,0.2,2.6,0.2,3.8c0,7.5-2.5,14.8-7.2,20.7c-5.5,6.9-13.5,11.4-22.3,12.4c-2.6,0.3-5.1,0.3-7.7,0&#10;		c-15.1-1.8-27.1-13.6-29.2-28.7H55.5z"
   id="path49" />
	<path
   class="st3_data-analysis-45 targetColor"
   d="M150.4,137.3c-9.5-8.4-21.6-13.4-34.3-14.2v25.2c6,0.7,11.7,3.1,16.5,6.9L150.4,137.3z"
   style="fill:#c14f44;fill-opacity:1"
   id="path50" />
</g>
<g
   id="line_of_text_data-analysis-45">
	<rect
   x="380.3"
   y="177.3"
   class="st1_data-analysis-45"
   width="53.2"
   height="6.5"
   id="rect50" />
	<path
   class="st0_data-analysis-45"
   d="M433.5,184.5h-53.2c-0.4,0-0.7-0.3-0.7-0.7c0,0,0,0,0,0v-6.5c0-0.4,0.3-0.7,0.7-0.7l0,0h53.2&#10;		c0.4,0,0.7,0.3,0.7,0.7c0,0,0,0,0,0v6.5C434.2,184.2,433.9,184.5,433.5,184.5z M381,183.1h51.8V178H381V183.1z"
   id="path51" />
	<rect
   x="380.3"
   y="196.3"
   class="st1_data-analysis-45"
   width="38.2"
   height="6.5"
   id="rect51" />
	<path
   class="st0_data-analysis-45"
   d="M418.5,203.4h-38.2c-0.4,0-0.7-0.3-0.7-0.7c0,0,0,0,0,0v-6.5c0-0.4,0.3-0.7,0.7-0.7l0,0h38.2&#10;		c0.4,0,0.7,0.3,0.7,0.7c0,0,0,0,0,0v6.5C419.2,203.1,418.9,203.4,418.5,203.4z M381,202h36.8v-5H381V202z"
   id="path52" />
	<rect
   x="380.3"
   y="215.2"
   class="st1_data-analysis-45"
   width="16.6"
   height="6.5"
   id="rect52" />
	<path
   class="st0_data-analysis-45"
   d="M396.9,222.4h-16.6c-0.4,0-0.7-0.3-0.7-0.7c0,0,0,0,0,0v-6.5c0-0.4,0.3-0.7,0.7-0.7l0,0h16.6&#10;		c0.4,0,0.7,0.3,0.7,0.7c0,0,0,0,0,0v6.5C397.6,222,397.3,222.4,396.9,222.4z M381,221h15.2v-5.1H381V221z"
   id="path53" />
	<rect
   x="380.3"
   y="234.1"
   class="st1_data-analysis-45"
   width="81.7"
   height="6.5"
   id="rect53" />
	<path
   class="st0_data-analysis-45"
   d="M462,241.3h-81.7c-0.4,0-0.7-0.3-0.7-0.7c0,0,0,0,0,0v-6.5c0-0.4,0.3-0.7,0.7-0.7l0,0H462&#10;		c0.4,0,0.7,0.3,0.7,0.7c0,0,0,0,0,0v6.5C462.7,241,462.4,241.3,462,241.3z M381,239.9h80.3v-5.1H381V239.9z"
   id="path54" />
	<rect
   x="380.3"
   y="253.1"
   class="st1_data-analysis-45"
   width="43.5"
   height="6.5"
   id="rect54" />
	<path
   class="st0_data-analysis-45"
   d="M423.8,260.2h-43.5c-0.4,0-0.7-0.3-0.7-0.7v0v-6.5c0-0.4,0.3-0.7,0.7-0.7l0,0h43.5c0.4,0,0.7,0.3,0.7,0.7v6.5&#10;		C424.5,259.9,424.2,260.2,423.8,260.2z M381,258.8h42.1v-5.1H381V258.8z"
   id="path55" />
</g>
<g
   id="Plant_data-analysis-45">
	<path
   class="st2_data-analysis-45"
   d="M92,337.6c-0.4,0-0.7-0.3-0.7-0.7c0,0,0,0,0,0v-25.5c0-0.4,0.3-0.7,0.7-0.7c0.4,0,0.7,0.3,0.7,0.7V337&#10;		C92.7,337.4,92.4,337.6,92,337.6z"
   id="path56" />
	<path
   class="st1_data-analysis-45"
   d="M78.9,335.9h26.2c0.8,0,1.4,0.6,1.4,1.4v0.5c0,0.8-0.6,1.4-1.4,1.4H78.9c-0.8,0-1.4-0.6-1.4-1.4v-0.5&#10;		C77.4,336.6,78.1,335.9,78.9,335.9z"
   id="path57" />
	<path
   class="st2_data-analysis-45"
   d="M105.1,340H78.9c-1.2,0-2.1-1-2.1-2.1c0,0,0,0,0,0v-0.5c0-1.2,0.9-2.1,2.1-2.1c0,0,0,0,0,0h26.2&#10;		c1.2,0,2.2,1,2.2,2.1v0.5C107.2,339,106.3,340,105.1,340z M78.9,336.7c-0.4,0-0.7,0.3-0.7,0.7l0,0v0.5c0,0.4,0.3,0.7,0.7,0.7h0&#10;		h26.2c0.4,0,0.7-0.3,0.7-0.7l0,0v-0.5c0-0.4-0.3-0.7-0.7-0.7h0H78.9z"
   id="path58" />
	<polygon
   class="st1_data-analysis-45"
   points="101.2,358.4 82.7,358.4 78.7,339.3 105.2,339.3 	"
   id="polygon58" />
	<path
   class="st2_data-analysis-45"
   d="M101.2,359.1H82.7c-0.3,0-0.6-0.2-0.7-0.6l-4-19.1c0-0.2,0-0.4,0.2-0.6c0.1-0.2,0.3-0.3,0.6-0.3h26.5&#10;		c0.2,0,0.4,0.1,0.6,0.3c0.1,0.2,0.2,0.4,0.1,0.6l-4,19.1C101.8,358.8,101.6,359.1,101.2,359.1z M83.3,357.6h17.3l3.7-17.6H79.6&#10;		L83.3,357.6z"
   id="path59" />
	<path
   class="st2_data-analysis-45"
   d="M91.3,316.8c0,0,3.1-5.9,7.7-7.4s10.6-2.8,8.8-7.5s-10.8-5.5-14.6-0.7S90.7,314.7,91.3,316.8z"
   id="path60" />
	<path
   class="st2_data-analysis-45"
   d="M92,322.9c0,0,2.6-6.4,7.6-7.5s6.7,2.1,5.2,4.9S94.2,320.6,92,322.9z"
   id="path61" />
	<path
   class="st2_data-analysis-45"
   d="M92,319.7c0,0-1.2-5.3-5.9-7.6s-8.6,0.8-7.5,3.3s5.3,1.6,8.1,2.4C88.5,318.4,90.3,319,92,319.7z"
   id="path62" />
	<path
   class="st2_data-analysis-45"
   d="M91.7,331.9c1.7-2.2,4-4,6.7-5c4.4-1.7,7.9,0.4,7.1,2.9C103.4,335.9,94.3,329.9,91.7,331.9z"
   id="path63" />
	<path
   class="st2_data-analysis-45"
   d="M92.2,328.9c0,0-1.4-6.5-7.7-7.5s-8,3.1-7.1,5.7s5.3,0.8,7.6,0.5S92.2,328.9,92.2,328.9z"
   id="path64" />
</g>
</svg>
